<svg width="384" height="1080" viewBox="0 0 384 1080" fill="none" xmlns="http://www.w3.org/2000/svg">
<rect x="384" width="1080" height="384" transform="rotate(90 384 0)" fill="#070708"/>
<rect width="63.8095" height="67.619" fill="#FA4A22"/>
<rect y="135.238" width="63.8095" height="67.619" fill="#FA4A22"/>
<rect y="270.477" width="63.8095" height="66.6667" fill="#FA4A22"/>
<rect y="404.762" width="63.8095" height="67.619" fill="#FA4A22"/>
<rect x="127.619" width="63.8095" height="67.619" fill="#FA4A22"/>
<rect x="127.619" y="135.238" width="63.8095" height="67.619" fill="#FA4A22"/>
<rect x="127.619" y="270.477" width="63.8095" height="66.6667" fill="#FA4A22"/>
<rect x="127.619" y="404.762" width="63.8095" height="67.619" fill="#FA4A22"/>
<rect x="63.8086" y="67.6191" width="63.8095" height="67.619" fill="#FA4A22"/>
<rect x="63.8086" y="202.857" width="63.8095" height="67.619" fill="#FA4A22"/>
<rect x="63.8086" y="337.143" width="63.8095" height="67.619" fill="#FA4A22"/>
<rect x="63.8086" y="472.381" width="63.8095" height="67.619" fill="#FA4A22"/>
<rect y="540" width="63.8095" height="67.619" fill="#FA4A22"/>
<rect y="675.238" width="63.8095" height="67.619" fill="#FA4A22"/>
<rect y="810.477" width="63.8095" height="66.6667" fill="#FA4A22"/>
<rect y="944.762" width="63.8095" height="67.619" fill="#FA4A22"/>
<rect x="127.619" y="540" width="63.8095" height="67.619" fill="#FA4A22"/>
<rect x="127.619" y="675.238" width="63.8095" height="67.619" fill="#FA4A22"/>
<rect x="127.619" y="810.477" width="63.8095" height="66.6667" fill="#FA4A22"/>
<rect x="127.619" y="944.762" width="63.8095" height="67.619" fill="#FA4A22"/>
<rect x="63.8086" y="607.619" width="63.8095" height="67.619" fill="#FA4A22"/>
<rect x="63.8086" y="742.857" width="63.8095" height="67.619" fill="#FA4A22"/>
<rect x="63.8086" y="877.143" width="63.8095" height="67.619" fill="#FA4A22"/>
<rect x="63.8086" y="1012.38" width="63.8095" height="67.619" fill="#FA4A22"/>
<rect x="191.43" y="68" width="63.8095" height="67.619" fill="#FA4A22"/>
<rect x="191.43" y="203.238" width="63.8095" height="67.619" fill="#FA4A22"/>
<rect x="191.43" y="338.477" width="63.8095" height="66.6667" fill="#FA4A22"/>
<rect x="191.43" y="472.762" width="63.8095" height="67.619" fill="#FA4A22"/>
<rect x="319.049" y="68" width="63.8095" height="67.619" fill="#FA4A22"/>
<rect x="319.049" y="203.238" width="63.8095" height="67.619" fill="#FA4A22"/>
<rect x="319.049" y="338.477" width="63.8095" height="66.6667" fill="#FA4A22"/>
<rect x="319.049" y="472.762" width="63.8095" height="67.619" fill="#FA4A22"/>
<rect x="255.238" y="135.619" width="63.8095" height="67.619" fill="#FA4A22"/>
<rect x="255.238" y="270.857" width="63.8095" height="67.619" fill="#FA4A22"/>
<rect x="255.238" y="405.143" width="63.8095" height="67.619" fill="#FA4A22"/>
<rect x="255.238" y="540.381" width="63.8095" height="67.619" fill="#FA4A22"/>
<rect x="255.238" y="1" width="63.8095" height="67.619" fill="#FA4A22"/>
<rect x="191.43" y="608" width="63.8095" height="67.619" fill="#FA4A22"/>
<rect x="191.43" y="743.238" width="63.8095" height="67.619" fill="#FA4A22"/>
<rect x="191.43" y="878.477" width="63.8095" height="66.6667" fill="#FA4A22"/>
<rect x="191.43" y="1012.76" width="63.8095" height="67.619" fill="#FA4A22"/>
<rect x="319.049" y="608" width="63.8095" height="67.619" fill="#FA4A22"/>
<rect x="319.049" y="743.238" width="63.8095" height="67.619" fill="#FA4A22"/>
<rect x="319.049" y="878.477" width="63.8095" height="66.6667" fill="#FA4A22"/>
<rect x="319.049" y="1012.76" width="63.8095" height="67.619" fill="#FA4A22"/>
<rect x="255.238" y="675.619" width="63.8095" height="67.619" fill="#FA4A22"/>
<rect x="255.238" y="810.857" width="63.8095" height="67.619" fill="#FA4A22"/>
<rect x="255.238" y="945.143" width="63.8095" height="67.619" fill="#FA4A22"/>
</svg>
