<svg width="384" height="1080" viewBox="0 0 384 1080" fill="none" xmlns="http://www.w3.org/2000/svg">
<rect x="384" width="1080" height="384" transform="rotate(90 384 0)" fill="#FA4A22"/>
<path d="M55.553 0.207041L55.553 18.0087L40 18.0087L40 0.20704L55.553 0.207041ZM74.1042 48.4223L74.1042 82.1517L61.1746 82.1517L61.1746 48.4223L74.1042 48.4223ZM55.553 112.565L55.553 130.367L40 130.367L40 112.565L55.553 112.565ZM55.553 168.744L55.553 186.546L40 186.546L40 168.744L55.553 168.744ZM74.1042 216.96L74.1042 250.689L61.1746 250.689L61.1746 216.96L74.1042 216.96ZM55.553 337.282L55.553 355.084L40 355.084L40 337.282L55.553 337.282ZM74.1042 385.497L74.1042 419.227L61.1746 419.227L61.1746 385.497L74.1042 385.497ZM55.553 449.64L55.553 467.442L40 467.442L40 449.64L55.553 449.64ZM55.553 505.819L55.553 523.621L40 523.621L40 505.819L55.553 505.819ZM55.553 561.998L55.553 579.8L40 579.8L40 561.998L55.553 561.998ZM55.553 674.357L55.553 692.158L40 692.158L40 674.357L55.553 674.357ZM74.1042 722.572L74.1042 756.301L61.1746 756.301L61.1746 722.572L74.1042 722.572ZM55.553 786.715L55.553 804.517L40 804.517L40 786.715L55.553 786.715ZM74.1042 834.93L74.1042 868.66L61.1746 868.66L61.1746 834.93L74.1042 834.93ZM55.553 899.073L55.553 916.875L40 916.875L40 899.073L55.553 899.073ZM74.1042 947.288L74.1042 981.018L61.1746 981.018L61.1746 947.288L74.1042 947.288ZM74.1042 1003.47L74.1042 1037.2L61.1745 1037.2L61.1746 1003.47L74.1042 1003.47ZM55.553 1067.61L55.553 1085.41L40 1085.41L40 1067.61L55.553 1067.61ZM55.553 1123.79L55.553 1141.59L39.9999 1141.59L40 1123.79L55.553 1123.79ZM55.553 1179.97L55.553 1197.77L39.9999 1197.77L39.9999 1179.97L55.553 1179.97ZM55.553 1292.33L55.553 1310.13L39.9999 1310.13L39.9999 1292.33L55.553 1292.33ZM74.1042 1340.54L74.1042 1374.27L61.1745 1374.27L61.1745 1340.54L74.1042 1340.54Z" fill="#0751FF"/>
<path d="M135.447 1275.79L135.447 1257.99L151 1257.99L151 1275.79L135.447 1275.79ZM116.896 1227.58L116.896 1193.85L129.825 1193.85L129.825 1227.58L116.896 1227.58ZM135.447 1163.43L135.447 1145.63L151 1145.63L151 1163.43L135.447 1163.43ZM116.896 1115.22L116.896 1081.49L129.825 1081.49L129.825 1115.22L116.896 1115.22ZM135.447 1051.08L135.447 1033.27L151 1033.27L151 1051.08L135.447 1051.08ZM135.447 994.897L135.447 977.096L151 977.096L151 994.897L135.447 994.897ZM135.447 882.539L135.447 864.737L151 864.737L151 882.539L135.447 882.539ZM116.896 834.324L116.896 800.594L129.825 800.594L129.825 834.324L116.896 834.324ZM116.896 721.965L116.896 688.236L129.825 688.236L129.825 721.965L116.896 721.965ZM135.447 657.822L135.447 640.021L151 640.021L151 657.822L135.447 657.822ZM135.447 601.643L135.447 583.842L151 583.842L151 601.643L135.447 601.643ZM135.447 545.464L135.447 527.663L151 527.663L151 545.464L135.447 545.464ZM135.447 433.106L135.447 415.304L151 415.304L151 433.106L135.447 433.106ZM116.896 384.891L116.896 351.161L129.825 351.161L129.825 384.891L116.896 384.891ZM116.896 272.532L116.896 238.803L129.825 238.803L129.825 272.532L116.896 272.532ZM116.896 216.353L116.896 182.624L129.825 182.624L129.825 216.353L116.896 216.353ZM135.447 152.21L135.447 134.409L151 134.409L151 152.21L135.447 152.21ZM135.447 39.8519L135.447 22.0503L151 22.0503L151 39.8519L135.447 39.8519Z" fill="#0751FF"/>
<path d="M240.553 162.207L240.553 180.009L225 180.009L225 162.207L240.553 162.207ZM259.104 210.422L259.104 244.152L246.175 244.152L246.175 210.422L259.104 210.422ZM259.104 266.601L259.104 300.331L246.175 300.331L246.175 266.601L259.104 266.601ZM240.553 386.924L240.553 404.725L225 404.725L225 386.924L240.553 386.924ZM259.104 435.139L259.104 468.868L246.175 468.868L246.175 435.139L259.104 435.139ZM240.553 499.282L240.553 517.084L225 517.084L225 499.282L240.553 499.282ZM240.553 555.461L240.553 573.263L225 573.263L225 555.461L240.553 555.461ZM240.553 667.819L240.553 685.621L225 685.621L225 667.819L240.553 667.819ZM259.104 716.035L259.104 749.764L246.175 749.764L246.175 716.035L259.104 716.035ZM259.104 828.393L259.104 862.122L246.175 862.122L246.175 828.393L259.104 828.393ZM240.553 892.536L240.553 910.337L225 910.337L225 892.536L240.553 892.536ZM240.553 948.715L240.553 966.517L225 966.517L225 948.715L240.553 948.715ZM240.553 1004.89L240.553 1022.7L225 1022.7L225 1004.89L240.553 1004.89ZM240.553 1117.25L240.553 1135.05L225 1135.05L225 1117.25L240.553 1117.25Z" fill="#0751FF"/>
<path d="M332.447 1161.79L332.447 1143.99L348 1143.99L348 1161.79L332.447 1161.79ZM313.896 1113.58L313.896 1079.85L326.825 1079.85L326.825 1113.58L313.896 1113.58ZM313.896 1057.4L313.896 1023.67L326.825 1023.67L326.825 1057.4L313.896 1057.4ZM332.447 937.076L332.447 919.275L348 919.275L348 937.076L332.447 937.076ZM313.896 888.861L313.896 855.132L326.825 855.132L326.825 888.861L313.896 888.861ZM332.447 824.718L332.447 806.916L348 806.916L348 824.718L332.447 824.718ZM332.447 768.539L332.447 750.737L348 750.737L348 768.539L332.447 768.539ZM332.447 656.181L332.447 638.379L348 638.379L348 656.181L332.447 656.181ZM313.896 607.965L313.896 574.236L326.825 574.236L326.825 607.965L313.896 607.965ZM313.896 495.607L313.896 461.878L326.825 461.878L326.825 495.607L313.896 495.607ZM332.447 431.464L332.447 413.663L348 413.663L348 431.464L332.447 431.464ZM332.447 375.285L332.447 357.483L348 357.483L348 375.285L332.447 375.285ZM332.447 319.106L332.447 301.304L348 301.304L348 319.106L332.447 319.106ZM332.447 206.748L332.447 188.946L348 188.946L348 206.748L332.447 206.748ZM313.896 158.532L313.896 124.803L326.825 124.803L326.825 158.532L313.896 158.532ZM313.896 46.1741L313.896 12.4446L326.825 12.4446L326.825 46.1741L313.896 46.1741Z" fill="#0751FF"/>
</svg>
